<svg xmlns="http://www.w3.org/2000/svg" xmlns:xlink="http://www.w3.org/1999/xlink">

    <symbol id="icon-logo" viewBox="0 0 511.999 511.999">
        <path d="M256 7.5c-22.136 0-40.081 17.945-40.081 40.081v24.048h80.161V47.581C296.081 25.445 278.136 7.5 256 7.5z" fill="#fac97a"/><path d="M239.968 23.532V10.884c-14.144 6.19-24.048 20.27-24.048 36.697v24.048h80.161V47.581h-32.065c-13.281 0-24.048-10.767-24.048-24.049z" fill="#fab667"/><path d="M336.161 71.629H175.839c-8.854 0-16.032 7.178-16.032 16.032v16.032h192.387V87.661c0-8.854-7.178-16.032-16.033-16.032z" fill="#9c969e"/><path d="M480.452 368.226H31.548c-8.854 0-16.032-7.178-16.032-16.032V256c0-8.854 7.178-16.032 16.032-16.032h448.903c8.854 0 16.032 7.178 16.032 16.032v96.194c.001 8.854-7.177 16.032-16.031 16.032z" fill="#e6646e"/><path d="M408.306 504.5H103.694c-26.563 0-48.097-21.534-48.097-48.097V151.79c0-26.563 21.534-48.097 48.097-48.097h304.613c26.563 0 48.097 21.534 48.097 48.097v304.613c-.001 26.563-21.534 48.097-48.098 48.097z" fill="#c4deff"/><circle cx="167.82" cy="264.02" r="64.13" fill="#a5cdff"/><g fill="#fff"><circle cx="167.82" cy="264.02" r="40.08"/><path d="M360.21 432.355H151.79c-8.854 0-16.032-7.178-16.032-16.032V400.29c0-8.854 7.178-16.032 16.032-16.032h208.42c8.854 0 16.032 7.178 16.032 16.032v16.032c0 8.855-7.178 16.033-16.032 16.033z"/></g><circle cx="344.18" cy="264.02" r="64.13" fill="#a5cdff"/><circle cx="344.18" cy="264.02" r="40.08" fill="#fff"/><path d="M151.79 472.435c-35.417 0-64.129-28.712-64.129-64.129V106.489c-18.668 6.609-32.065 24.368-32.065 45.301v304.613c0 26.563 21.534 48.097 48.097 48.097h304.613c20.933 0 38.691-13.396 45.301-32.065H151.79z" fill="#a5cdff"/><path d="M480.452 232.468h-16.548v-80.677c0-30.656-24.94-55.597-55.597-55.597h-48.613v-8.532c0-12.976-10.557-23.532-23.532-23.532h-32.581V47.581C303.581 21.345 282.236 0 256 0s-47.581 21.345-47.581 47.581v16.548h-32.581c-12.976 0-23.532 10.557-23.532 23.532v8.532h-48.613c-30.656 0-55.597 24.941-55.597 55.597v80.677H31.548c-12.976 0-23.532 10.557-23.532 23.532v96.193c0 12.976 10.557 23.532 23.532 23.532h16.548v80.678c0 30.656 24.94 55.597 55.597 55.597h304.613c30.656 0 55.597-24.94 55.597-55.597v-80.678h16.548c12.976 0 23.532-10.557 23.532-23.532V256c.001-12.976-10.556-23.532-23.531-23.532zM223.419 47.581C223.419 29.616 238.035 15 256 15s32.581 14.616 32.581 32.581v16.548H223.42l-.001-16.548zm-56.112 40.08c0-4.705 3.828-8.532 8.532-8.532h160.322c4.705 0 8.532 3.828 8.532 8.532v8.532H167.307v-8.532zm321.677 264.532c0 4.705-3.828 8.532-8.532 8.532h-16.548v-72.658a7.5 7.5 0 00-15 0v168.335c0 22.385-18.211 40.597-40.597 40.597H103.693c-22.385 0-40.597-18.211-40.597-40.597V288.061a7.5 7.5 0 00-15 0v72.665H31.548c-4.705 0-8.532-3.828-8.532-8.532V256c0-4.705 3.828-8.532 8.532-8.532h16.548v8.534a7.5 7.5 0 0015 0V151.791c0-22.385 18.211-40.597 40.597-40.597h304.613c22.385 0 40.597 18.212 40.597 40.597V256a7.5 7.5 0 0015 0v-8.532h16.548c4.705 0 8.532 3.828 8.532 8.532l.001 96.193z"/><path d="M360.209 376.758H151.791c-12.976 0-23.532 10.557-23.532 23.532v16.032c0 12.976 10.557 23.532 23.532 23.532H360.21c12.976 0 23.532-10.557 23.532-23.532V400.29c0-12.975-10.557-23.532-23.533-23.532zm-136.79 15H248.5v33.097h-25.081v-33.097zm-15 33.097h-25.081v-33.097h25.081v33.097zm55.081-33.097h25.081v33.097H263.5v-33.097zm40.08 0h25.081v33.097H303.58v-33.097zm-160.322 24.565v-16.032c0-4.705 3.828-8.532 8.532-8.532h16.548v33.097H151.79c-4.704-.001-8.532-3.829-8.532-8.533zm225.484 0c0 4.705-3.828 8.532-8.532 8.532h-16.548v-33.097h16.548c4.705 0 8.532 3.828 8.532 8.532v16.033zM139.11 312.753a7.5 7.5 0 00-7.623 12.919 71.475 71.475 0 0036.381 9.944c18.506 0 36.818-7.167 50.602-20.951 23.08-23.079 27.605-58.848 11.007-86.984a7.5 7.5 0 10-12.919 7.623c13.122 22.241 9.546 50.515-8.694 68.755a56.426 56.426 0 01-32.542 16.059V207.934a56.526 56.526 0 0121.212 7.345 7.5 7.5 0 007.623-12.919c-28.135-16.599-63.904-12.073-86.983 11.006s-27.605 58.849-11.006 86.984a7.496 7.496 0 0010.27 2.648 7.5 7.5 0 002.648-10.271c-13.122-22.241-9.546-50.514 8.694-68.755a56.414 56.414 0 0132.543-16.059v112.184a56.511 56.511 0 01-21.213-7.344zM395.516 225.033a7.5 7.5 0 00-2.648 10.271c13.122 22.241 9.546 50.514-8.694 68.755a56.42 56.42 0 01-32.543 16.059V207.934a56.509 56.509 0 0121.212 7.345 7.5 7.5 0 007.623-12.919c-28.135-16.599-63.905-12.073-86.984 11.006-23.08 23.08-27.605 58.849-11.006 86.984a7.496 7.496 0 0010.271 2.648 7.5 7.5 0 002.648-10.271c-13.122-22.241-9.546-50.514 8.694-68.755a56.419 56.419 0 0132.543-16.058v112.183a56.509 56.509 0 01-21.212-7.345 7.5 7.5 0 10-7.623 12.919 71.475 71.475 0 0036.381 9.944c18.506 0 36.819-7.167 50.603-20.95 23.08-23.08 27.605-58.849 11.006-86.984a7.5 7.5 0 00-10.271-2.648z"/>
    </symbol>

    <symbol id="icon-add" viewBox="0 0 490.688 490.688">
        <path d="M462.784 209.088c-7.552-5.568-17.067-12.523-18.219-17.067a57.121 57.121 0 017.339-25.024c6.656-15.275 13.525-31.104 5.888-44.267-7.637-13.163-25.003-15.296-41.707-17.067a56.822 56.822 0 01-24.939-5.952 56.805 56.805 0 01-5.931-25.024c-1.877-16.704-3.819-33.984-17.067-41.707-13.248-7.723-29.099-.96-44.373 5.781A57.283 57.283 0 01298.73 46.1c-4.608-1.237-11.541-10.667-17.067-18.219C271.978 14.825 261.076.02 245.332.02s-26.645 14.805-36.267 27.861c-5.589 7.573-12.523 17.067-17.067 18.24a58.514 58.514 0 01-25.045-7.339c-15.36-6.763-31.189-13.504-44.309-5.909s-15.317 25.003-17.195 41.813a57.09 57.09 0 01-5.931 24.939 56.991 56.991 0 01-24.853 5.845c-16.725 1.877-34.027 3.819-41.728 17.067s-.937 29.079 5.804 44.375a57.088 57.088 0 017.339 25.109c-1.237 4.608-10.667 11.563-18.219 17.067C14.805 218.688 0 229.611 0 245.355s14.805 26.667 27.883 36.267c7.552 5.568 17.067 12.523 18.219 17.067a57.121 57.121 0 01-7.339 25.024c-6.656 15.275-13.525 31.104-5.888 44.267 7.637 13.163 25.003 15.296 41.707 17.067a56.822 56.822 0 0124.939 5.952 56.805 56.805 0 015.931 25.024c1.877 16.704 3.819 33.984 17.067 41.707 13.248 7.723 28.971.768 44.267-5.888a58.583 58.583 0 0125.216-7.253c4.608 1.237 11.541 10.667 17.067 18.219 9.621 13.056 20.523 27.861 36.267 27.861s26.645-14.805 36.267-27.861c5.589-7.573 12.523-17.067 17.067-18.24a57.592 57.592 0 0125.045 7.339c15.275 6.656 31.104 13.483 44.245 5.909 13.141-7.573 15.317-25.003 17.195-41.728a57.09 57.09 0 015.931-24.939 56.998 56.998 0 0124.917-5.909c16.725-1.877 34.027-3.819 41.728-17.067 7.701-13.248.747-28.971-5.888-44.267a57.084 57.084 0 01-7.253-25.216c1.237-4.608 10.667-11.563 18.219-17.067 13.056-9.621 27.883-20.544 27.883-36.267s-14.831-26.668-27.908-36.268z" fill="#ffc107"/><g fill="#fafafa"><path d="M181.333 298.688a10.666 10.666 0 01-8.533-4.267L128 234.688v53.333c0 5.891-4.776 10.667-10.667 10.667s-10.667-4.776-10.667-10.667v-85.333c0-5.891 4.776-10.667 10.667-10.667 3.357 0 6.519 1.581 8.533 4.267l44.8 59.733v-53.333c0-5.891 4.776-10.667 10.667-10.667S192 196.797 192 202.688v85.333a10.666 10.666 0 01-7.296 10.112 10.5 10.5 0 01-3.371.555zM266.667 298.688H224c-5.891 0-10.667-4.776-10.667-10.667v-85.333c0-5.891 4.776-10.667 10.667-10.667h42.667c5.891 0 10.667 4.776 10.667 10.667s-4.776 10.667-10.667 10.667h-32v64h32c5.891 0 10.667 4.776 10.667 10.667s-4.776 10.666-10.667 10.666z"/><path d="M266.667 256.021H224c-5.891 0-10.667-4.776-10.667-10.667s4.776-10.667 10.667-10.667h42.667c5.891 0 10.667 4.776 10.667 10.667s-4.776 10.667-10.667 10.667zM373.333 298.688a10.665 10.665 0 01-10.133-7.296L352 257.749l-11.2 33.643a10.198 10.198 0 01-10.539 7.275 10.665 10.665 0 01-9.941-8.064l-21.333-85.333c-1.426-5.72 2.056-11.513 7.776-12.939 5.72-1.426 11.513 2.056 12.939 7.776l12.437 49.792 9.749-29.248c2.535-5.591 9.122-8.068 14.713-5.533a11.117 11.117 0 015.533 5.533l9.749 29.248 12.437-49.792c1.426-5.72 7.218-9.202 12.939-7.776 5.72 1.426 9.202 7.218 7.776 12.939l-21.333 85.333a10.666 10.666 0 01-9.941 8.064l-.428.021z"/></g>
    </symbol>

    <symbol id="icon-remove" viewBox="0 0 24 24">
        <path d="M21.104 15.45a4.056 4.056 0 00-3.524-5.911 5.162 5.162 0 00.995-3.322c-.077-1.54-.829-2.955-2.129-3.926L12.777.105a.75.75 0 00-1.134.645v2.091a2.116 2.116 0 01-2.114 2.114c-.975 0-1.889.383-2.573 1.077a3.581 3.581 0 00-1.04 2.59c.005.324.069.641.185.936a4.057 4.057 0 00-3.204 5.893A4.415 4.415 0 000 19.582 4.423 4.423 0 004.419 24h15.162A4.423 4.423 0 0024 19.582a4.417 4.417 0 00-2.896-4.132z" fill="#5d4037"/><circle cx="8" cy="13.985" fill="#fff" r="1.5"/><circle cx="16" cy="13.985" fill="#fff" r="1.5"/><path d="M12 22.005a5.701 5.701 0 01-5.467-4.033A.753.753 0 017.25 17h9.5a.75.75 0 01.717.972A5.7 5.7 0 0112 22.005z" fill="#e53935"/>
    </symbol>
</svg>